#!OML:ASF H:\ColoradoDance\Project 1\Capture day 1\Session 8\male.ASF
:FULLY-SPECIFIED
:DEGREES
31
upperback -3.635540 -0.806117 -0.166658
rfoot -7.692240 -16.577700
lradius 32.734299
lthumb -0.541601 59.005299
rradius 31.959400
lwrist -8.740980
rhand -23.596800 -4.557410
rhumerus -40.948399 1.142280 -89.691597
lowerneck -6.043220 -0.899851 1.759930
lhand -27.125799 29.026199
ltibia 51.608799
head 4.007450 -0.659003 -1.329310
rwrist 2.335600
lfingers 7.125020
rtoes 3.928050
lowerback 1.706000 -0.582792 0.389838
rfingers 7.125020
lclavicle 0.000000 -0.000000
upperneck 9.022700 -1.150650 -2.853220
rfemur -18.314199 -2.171760 26.872801
thorax -4.712940 -0.433639 -0.342589
rclavicle 0.000000 -0.000000
rtibia 23.525499
lfoot 35.703400 10.729100
lhumerus -37.293201 1.673520 74.155899
rthumb 2.866770 -394.518005
root 22.420099 19.360701 7.768990 19.722300 -83.593002 343.916992
ltoes 22.227400
lfemur -4.750800 4.017170 -13.843300
32
upperback -3.251830 0.223715 -0.541518
rfoot -15.149600 -10.010800
lradius 41.134800
lthumb -3.549000 52.888802
rradius 38.025101
lwrist -4.847920
rhand -35.215302 0.037883
rhumerus -34.226101 1.006600 -86.605400
lowerneck -6.263220 0.748800 3.464230
lhand -30.239799 22.938601
ltibia 64.972099
head 3.386990 0.411948 -1.623810
rwrist 2.534280
lfingers 7.125020
rtoes 2.008530
lowerback 2.142320 0.162322 1.308000
rfingers 7.125020
lclavicle -0.000000 0.000000
upperneck 6.902930 0.914818 -3.199860
rfemur -14.826900 -2.212730 27.797899
thorax -4.547590 0.043893 -1.304850
rclavicle -0.000000 0.000000
rtibia 27.213499
lfoot 4.194600 5.739650
lhumerus -34.566101 -1.790820 76.292900
rthumb -8.352550 -389.777008
root 20.523100 19.263700 7.793680 136.524994 -86.900299 228.253006
ltoes -7.588440
lfemur -32.169998 10.745800 -15.467100
33
upperback -2.970590 0.306701 -0.274294
rfoot -20.328100 -8.588560
lradius 37.796001
lthumb 2.419420 53.404099
rradius 34.575100
lwrist -8.898360
rhand -37.087601 1.556580
rhumerus -35.975201 -2.597190 -84.105797
lowerneck -5.519130 3.492950 5.934940
lhand -24.059999 23.438101
ltibia 35.701302
head 2.649310 2.189600 -2.105010
rwrist 3.771560
lfingers 7.125020
rtoes -0.784108
lowerback 1.142350 0.213940 1.964630
rfingers 7.125020
lclavicle -0.000000 -0.000000
upperneck 4.459670 4.419650 -3.824810
rfemur -8.379320 3.077990 26.847900
thorax -3.684180 0.078487 -1.395730
rclavicle -0.000000 -0.000000
rtibia 25.714001
lfoot 2.259520 18.706499
lhumerus -40.082901 -1.304590 78.180496
rthumb -10.159200 -388.178009
root 18.408701 19.137100 8.089180 168.276993 -78.752296 198.001007
ltoes 3.417930
lfemur -38.548302 2.806260 -9.509560
34
upperback -3.077700 0.377056 0.392691
rfoot -25.009701 -10.307200
lradius 25.261801
lthumb 3.546680 49.227200
rradius 20.556700
lwrist -17.264799
rhand -35.228500 -0.619930
rhumerus -46.653999 -14.413900 -71.842201
lowerneck -5.260490 5.934790 8.173570
lhand -22.892700 19.277000
ltibia 22.338699
head 2.906310 3.779710 -2.584710
rwrist 12.401700
lfingers 7.125020
rtoes -13.084800
lowerback -0.510431 0.287846 2.779470
rfingers 7.125020
lclavicle -0.000000 0.000000
upperneck 4.394050 7.570910 -4.500530
rfemur 0.022340 11.085100 25.778299
thorax -2.859410 0.102005 -1.159770
rclavicle -0.000000 0.000000
rtibia 26.005699
lfoot -15.214000 25.262600
lhumerus -48.338799 10.016500 70.383698
rthumb -8.365260 -390.433990
root 15.609600 18.680901 8.590440 169.699997 -71.091400 197.306000
ltoes 0.299298
lfemur -34.737202 0.856415 -3.689970
